<svg xmlns="http://www.w3.org/2000/svg" xmlns:xlink="http://www.w3.org/1999/xlink" width="500" zoomAndPan="magnify" viewBox="0 0 375 374.999991" height="500" preserveAspectRatio="xMidYMid meet" version="1.0"><defs><clipPath id="bdc6cdc3a8"><path d="M 14.203125 19 L 255 19 L 255 264 L 14.203125 264 Z M 14.203125 19 " clip-rule="nonzero"/></clipPath></defs><path fill="#ffffff" d="M 159.503906 194.964844 C 159.503906 208.0625 159.726562 219.808594 159.457031 231.558594 C 158.914062 254.59375 166.457031 274.21875 184.457031 288.847656 C 205.148438 305.671875 228.628906 309.121094 253.203125 299.152344 C 277.355469 289.367188 291.355469 270.851562 294.671875 244.816406 C 295.570312 237.828125 295.652344 230.695312 295.664062 223.632812 C 295.746094 164.609375 295.6875 105.585938 295.757812 46.558594 C 295.769531 33.738281 303.523438 23.652344 315.46875 20.324219 C 332.457031 15.578125 349.738281 27.457031 349.796875 45.238281 C 349.996094 111.738281 350.210938 178.234375 349.171875 244.722656 C 348.523438 286.449219 327.226562 317.421875 292.855469 339.441406 C 216.257812 388.488281 114.96875 339.121094 105.808594 248.617188 C 105.289062 243.496094 106.339844 239.515625 110.421875 236.078125 C 125.296875 223.515625 140.003906 210.753906 154.792969 198.09375 C 155.808594 197.246094 157.023438 196.609375 159.503906 194.964844 Z M 159.503906 194.964844 " fill-opacity="1" fill-rule="nonzero"/><g clip-path="url(#bdc6cdc3a8)"><path fill="#ffffff" d="M 254.457031 47.597656 C 254.457031 44.871094 254.007812 42.121094 253.535156 39.417969 C 250.230469 20.253906 220.800781 13.464844 209.152344 24.789062 C 189.039062 44.351562 167.28125 62.242188 145.917969 80.484375 C 102.265625 117.769531 58.4375 154.867188 14.574219 191.921875 C 14.445312 192.027344 14.351562 192.132812 14.230469 192.238281 L 14.230469 263.589844 C 76.78125 210.410156 138.113281 158.269531 200.476562 105.242188 C 200.476562 109.140625 200.476562 111.464844 200.476562 113.78125 C 200.488281 153.699219 200.453125 193.632812 200.605469 233.550781 C 200.617188 237.804688 201.207031 242.265625 202.613281 246.246094 C 206.765625 257.992188 219.503906 265.433594 231.105469 263.449219 C 245.226562 261.027344 254.433594 250.105469 254.445312 235.21875 C 254.527344 172.6875 254.503906 110.144531 254.457031 47.597656 Z M 254.457031 47.597656 " fill-opacity="1" fill-rule="nonzero"/></g></svg>